<?xml version="1.0" encoding="UTF-8"?>
<svg id="Layer_1" data-name="Layer 1" xmlns="http://www.w3.org/2000/svg" viewBox="0 0 512 128">
  <defs>
    <style>
      .cls-1 {
        letter-spacing: .04em;
      }

      .cls-2 {
        fill: #eb7115;
        font-family: CalibanStd, 'Caliban Std';
        font-size: 70px;
      }

      .cls-3 {
        fill: #6b4b32;
      }

      .cls-4 {
        fill: #fff;
      }

      .cls-5 {
        letter-spacing: .03em;
      }

      .cls-6 {
        fill: #4a704b;
      }

      .cls-7 {
        fill: #aaab86;
      }

      .cls-8 {
        letter-spacing: 0em;
      }

      .cls-9 {
        letter-spacing: 0em;
      }

      .cls-10 {
        fill: #4010cc;
        stroke: #fff;
        stroke-miterlimit: 10;
      }

      .cls-11 {
        letter-spacing: -.04em;
      }

      .cls-12 {
        letter-spacing: .01em;
      }
    </style>
  </defs>
  <rect class="cls-6" y="-1" width="512" height="129"/>
  <g id="Generative_Object" data-name="Generative Object">
    <path class="cls-10" d="M102.26,42.3c-1.87.74-3.4,2.2-5.24,2.98-.35-.29.14-4.22.07-4.82-3.19,2.08-7.79,2.85-11.56,3.41-15.68,2.35-39.12,2.27-54.88.29-4.24-.54-9.6-1.27-13.2-3.55-.36.05-.19.71-.21,1-1.51,20.34,4.07,51.4,24.89,60.56l29.65.14c5.21-2.27,9.79-5.93,13.25-10.43,1.04-1.36,3.26-5.57,4.19-6.31.48-.4,1.92-.87,2.55-1.27,9.3-6.12,22.56-15.77,24.89-27.31,1.9-9.38-4.16-18.72-14.4-14.68ZM92.62,77.62c2.38-8.63,3.88-17.47,4.19-26.45,2.04-1.99,5.79-5.15,8.71-5.46,3.65-.38,6.37,2.74,6.74,6.17,1.14,10.53-11.68,20.83-19.64,25.75Z"/>
    <g>
      <path class="cls-4" d="M98.32,40.46c-3.24,2.07-7.91,2.84-11.74,3.4-15.93,2.35-39.74,2.28-55.74.28-4.3-.54-9.75-1.27-13.39-3.55-.37.05-.19.71-.22.99-.92-2.66,2.75-3.51,4.68-3.97,12.21-2.93,33.07-2.45,45.95-2.13,4.92.12,26.87.93,29.81,3.69.31.29.6.86.65,1.28Z"/>
      <path class="cls-7" d="M89.82,41.88c-18.43-2.56-37.26-2.43-55.81-1.13l-8.14,1.28c-2.15-.41-4.42-.83-6.34-1.91,0-1.29,11.65-2.63,13.03-2.77,16.51-1.58,40.12-1.75,56.46.71,2.32.35,4.8.74,6.84,1.91.15.81-5.31,1.77-6.05,1.91Z"/>
      <path class="cls-3" d="M89.54,43.01c-16.39,1.76-47.22,1.75-63.66.08l8.1-.69c18.47-.7,37.22-.77,55.56.61Z"/>
    </g>
  </g>
  <text class="cls-2" transform="translate(118.38 81.34)"><tspan x="0" y="0">CO</tspan><tspan class="cls-8" x="61.32" y="0">F</tspan><tspan class="cls-5" x="88.69" y="0">F</tspan><tspan class="cls-9" x="117.46" y="0">E</tspan><tspan x="145.46" y="0">E </tspan><tspan class="cls-12" x="184.66" y="0">H</tspan><tspan x="223.02" y="0">E</tspan><tspan class="cls-11" x="250.32" y="0">A</tspan><tspan class="cls-1" x="280.14" y="0">V</tspan><tspan x="311.43" y="0">EN</tspan></text>
</svg>